<mxfile host="app.diagrams.net" modified="2022-08-04T20:30:53.201Z" agent="5.0 (Macintosh; Intel Mac OS X 10_15_7) AppleWebKit/537.36 (KHTML, like Gecko) Chrome/104.0.5112.81 Safari/537.36" etag="LKjuLH5vVWcyHFKtwaky" version="20.2.0" type="github">
  <diagram id="kJQsfTvK-ILQTnNJsW_u" name="Page-1">
    <mxGraphModel dx="1426" dy="830" grid="1" gridSize="10" guides="1" tooltips="1" connect="1" arrows="1" fold="1" page="1" pageScale="1" pageWidth="850" pageHeight="1100" math="0" shadow="0">
      <root>
        <mxCell id="0" />
        <mxCell id="1" parent="0" />
        <mxCell id="U817IbFH7pvis1tboVWd-2" value="AWS" style="ellipse;shape=cloud;whiteSpace=wrap;html=1;" vertex="1" parent="1">
          <mxGeometry x="340" y="90" width="120" height="80" as="geometry" />
        </mxCell>
        <mxCell id="U817IbFH7pvis1tboVWd-3" value="Yahoo" style="ellipse;shape=cloud;whiteSpace=wrap;html=1;" vertex="1" parent="1">
          <mxGeometry x="560" y="90" width="120" height="80" as="geometry" />
        </mxCell>
        <mxCell id="U817IbFH7pvis1tboVWd-4" value="LiveRamp (GCP)" style="rounded=0;whiteSpace=wrap;html=1;verticalAlign=bottom;align=right;" vertex="1" parent="1">
          <mxGeometry x="180" y="230" width="570" height="330" as="geometry" />
        </mxCell>
        <mxCell id="U817IbFH7pvis1tboVWd-6" value="TLS" style="edgeStyle=orthogonalEdgeStyle;rounded=0;orthogonalLoop=1;jettySize=auto;html=1;exitX=0.5;exitY=0;exitDx=0;exitDy=0;entryX=0.55;entryY=0.95;entryDx=0;entryDy=0;entryPerimeter=0;" edge="1" parent="1" source="U817IbFH7pvis1tboVWd-5" target="U817IbFH7pvis1tboVWd-2">
          <mxGeometry relative="1" as="geometry" />
        </mxCell>
        <mxCell id="U817IbFH7pvis1tboVWd-7" value="TLS 1.2" style="edgeStyle=orthogonalEdgeStyle;rounded=0;orthogonalLoop=1;jettySize=auto;html=1;exitX=0.75;exitY=0;exitDx=0;exitDy=0;" edge="1" parent="1" source="U817IbFH7pvis1tboVWd-5" target="U817IbFH7pvis1tboVWd-3">
          <mxGeometry relative="1" as="geometry" />
        </mxCell>
        <mxCell id="U817IbFH7pvis1tboVWd-15" style="edgeStyle=orthogonalEdgeStyle;rounded=0;orthogonalLoop=1;jettySize=auto;html=1;" edge="1" parent="1" source="U817IbFH7pvis1tboVWd-5" target="U817IbFH7pvis1tboVWd-9">
          <mxGeometry relative="1" as="geometry" />
        </mxCell>
        <mxCell id="U817IbFH7pvis1tboVWd-17" style="edgeStyle=orthogonalEdgeStyle;rounded=0;orthogonalLoop=1;jettySize=auto;html=1;exitX=0;exitY=0.5;exitDx=0;exitDy=0;" edge="1" parent="1" source="U817IbFH7pvis1tboVWd-5" target="U817IbFH7pvis1tboVWd-16">
          <mxGeometry relative="1" as="geometry" />
        </mxCell>
        <mxCell id="U817IbFH7pvis1tboVWd-26" style="edgeStyle=orthogonalEdgeStyle;rounded=0;orthogonalLoop=1;jettySize=auto;html=1;exitX=1;exitY=0;exitDx=0;exitDy=0;" edge="1" parent="1" source="U817IbFH7pvis1tboVWd-5" target="U817IbFH7pvis1tboVWd-25">
          <mxGeometry relative="1" as="geometry" />
        </mxCell>
        <mxCell id="U817IbFH7pvis1tboVWd-5" value="External File Service" style="rounded=0;whiteSpace=wrap;html=1;" vertex="1" parent="1">
          <mxGeometry x="405" y="250" width="120" height="60" as="geometry" />
        </mxCell>
        <mxCell id="U817IbFH7pvis1tboVWd-11" style="edgeStyle=orthogonalEdgeStyle;rounded=0;orthogonalLoop=1;jettySize=auto;html=1;" edge="1" parent="1" source="U817IbFH7pvis1tboVWd-8" target="U817IbFH7pvis1tboVWd-9">
          <mxGeometry relative="1" as="geometry" />
        </mxCell>
        <mxCell id="U817IbFH7pvis1tboVWd-13" style="edgeStyle=orthogonalEdgeStyle;rounded=0;orthogonalLoop=1;jettySize=auto;html=1;exitX=1;exitY=0.75;exitDx=0;exitDy=0;entryX=0.5;entryY=0;entryDx=0;entryDy=0;entryPerimeter=0;" edge="1" parent="1" source="U817IbFH7pvis1tboVWd-8" target="U817IbFH7pvis1tboVWd-12">
          <mxGeometry relative="1" as="geometry" />
        </mxCell>
        <mxCell id="U817IbFH7pvis1tboVWd-18" value="File download" style="edgeStyle=orthogonalEdgeStyle;rounded=0;orthogonalLoop=1;jettySize=auto;html=1;exitX=0.5;exitY=0;exitDx=0;exitDy=0;" edge="1" parent="1" source="U817IbFH7pvis1tboVWd-8" target="U817IbFH7pvis1tboVWd-5">
          <mxGeometry relative="1" as="geometry" />
        </mxCell>
        <mxCell id="U817IbFH7pvis1tboVWd-21" value="Upload" style="edgeStyle=orthogonalEdgeStyle;rounded=0;orthogonalLoop=1;jettySize=auto;html=1;" edge="1" parent="1" source="U817IbFH7pvis1tboVWd-8" target="U817IbFH7pvis1tboVWd-19">
          <mxGeometry relative="1" as="geometry" />
        </mxCell>
        <mxCell id="U817IbFH7pvis1tboVWd-23" style="edgeStyle=orthogonalEdgeStyle;rounded=0;orthogonalLoop=1;jettySize=auto;html=1;" edge="1" parent="1" source="U817IbFH7pvis1tboVWd-8" target="U817IbFH7pvis1tboVWd-22">
          <mxGeometry relative="1" as="geometry" />
        </mxCell>
        <mxCell id="U817IbFH7pvis1tboVWd-8" value="File Copy Service" style="rounded=0;whiteSpace=wrap;html=1;" vertex="1" parent="1">
          <mxGeometry x="410" y="365" width="120" height="60" as="geometry" />
        </mxCell>
        <mxCell id="U817IbFH7pvis1tboVWd-9" value="Queue per client" style="sketch=0;outlineConnect=0;fontColor=#232F3E;gradientColor=none;strokeColor=#232F3E;fillColor=#ffffff;dashed=0;verticalLabelPosition=bottom;verticalAlign=top;align=center;html=1;fontSize=12;fontStyle=0;aspect=fixed;shape=mxgraph.aws4.resourceIcon;resIcon=mxgraph.aws4.queue;" vertex="1" parent="1">
          <mxGeometry x="610" y="320" width="60" height="60" as="geometry" />
        </mxCell>
        <mxCell id="U817IbFH7pvis1tboVWd-12" value="File Log" style="shape=cylinder3;whiteSpace=wrap;html=1;boundedLbl=1;backgroundOutline=1;size=15;" vertex="1" parent="1">
          <mxGeometry x="570" y="460" width="60" height="80" as="geometry" />
        </mxCell>
        <mxCell id="U817IbFH7pvis1tboVWd-16" value="Secure Server&lt;br&gt;Client Credentials" style="rounded=0;whiteSpace=wrap;html=1;" vertex="1" parent="1">
          <mxGeometry x="240" y="250" width="120" height="60" as="geometry" />
        </mxCell>
        <mxCell id="U817IbFH7pvis1tboVWd-19" value="" style="strokeColor=#dddddd;shadow=1;strokeWidth=1;rounded=1;absoluteArcSize=1;arcSize=2;" vertex="1" parent="1">
          <mxGeometry x="410" y="480" width="120" height="60" as="geometry" />
        </mxCell>
        <mxCell id="U817IbFH7pvis1tboVWd-20" value="Cloud&#xa;Storage" style="editableCssRules=.*;fontColor=#999999;shape=image;verticalLabelPosition=middle;labelBackgroundColor=#ffffff;verticalAlign=middle;labelPosition=right;align=left;spacingLeft=20;part=1;points=[];imageAspect=0;image=data:image/svg+xml,PHN2ZyB4bWxucz0iaHR0cDovL3d3dy53My5vcmcvMjAwMC9zdmciIHhtbG5zOnY9Imh0dHBzOi8vdmVjdGEuaW8vbmFubyIgd2lkdGg9IjIwIiBoZWlnaHQ9IjE2IiB2aWV3Qm94PSIwIDAgMjAgMTYiPiYjeGE7CTxzdHlsZSB0eXBlPSJ0ZXh0L2NzcyI+JiN4YTsJLnN0MHtmaWxsOiM0Mjg1ZjQ7fSYjeGE7CS5zdDF7ZmlsbDojNjY5ZGY2O30mI3hhOwkuc3Qye2ZpbGw6I2FlY2JmYTt9JiN4YTsJLnN0M3tmaWxsOiNmZmY7fSYjeGE7CTwvc3R5bGU+JiN4YTsJPHBhdGggY2xhc3M9InN0MiIgZD0iTTAgMGgyMHY3SDB6Ii8+JiN4YTsJPHBhdGggY2xhc3M9InN0MSIgZD0iTTE4IDBoMnY3aC0yeiIvPiYjeGE7CTxwYXRoIGNsYXNzPSJzdDAiIGQ9Ik0xOCA3bDItN2gtMnoiLz4mI3hhOwk8cGF0aCBjbGFzcz0ic3QxIiBkPSJNMCAwaDJ2N0gweiIvPiYjeGE7CTxnIGNsYXNzPSJzdDMiPiYjeGE7CQk8cGF0aCBkPSJNNCAzaDZ2MUg0eiIvPiYjeGE7CQk8cmVjdCB4PSIxMyIgeT0iMiIgd2lkdGg9IjMiIGhlaWdodD0iMyIgcng9IjEuNSIvPiYjeGE7CTwvZz4mI3hhOwk8cGF0aCBjbGFzcz0ic3QyIiBkPSJNMCA5aDIwdjdIMHoiLz4mI3hhOwk8cGF0aCBjbGFzcz0ic3QxIiBkPSJNMTggOWgydjdoLTJ6Ii8+JiN4YTsJPHBhdGggY2xhc3M9InN0MCIgZD0iTTE4IDE2bDItN2gtMnoiLz4mI3hhOwk8cGF0aCBjbGFzcz0ic3QxIiBkPSJNMCA5aDJ2N0gweiIvPiYjeGE7CTxnIGNsYXNzPSJzdDMiPiYjeGE7CQk8cGF0aCBkPSJNNCAxMmg2djFINHoiLz4mI3hhOwkJPHJlY3QgeD0iMTMiIHk9IjExIiB3aWR0aD0iMyIgaGVpZ2h0PSIzIiByeD0iMS41Ii8+JiN4YTsJPC9nPiYjeGE7PC9zdmc+;" vertex="1" parent="U817IbFH7pvis1tboVWd-19">
          <mxGeometry width="30" height="24" relative="1" as="geometry">
            <mxPoint x="15" y="18" as="offset" />
          </mxGeometry>
        </mxCell>
        <mxCell id="U817IbFH7pvis1tboVWd-22" value="Notification Service" style="rounded=0;whiteSpace=wrap;html=1;" vertex="1" parent="1">
          <mxGeometry x="240" y="480" width="120" height="60" as="geometry" />
        </mxCell>
        <mxCell id="U817IbFH7pvis1tboVWd-25" value="Polling Queue" style="sketch=0;outlineConnect=0;fontColor=#232F3E;gradientColor=none;strokeColor=#232F3E;fillColor=#ffffff;dashed=0;verticalLabelPosition=bottom;verticalAlign=top;align=center;html=1;fontSize=12;fontStyle=0;aspect=fixed;shape=mxgraph.aws4.resourceIcon;resIcon=mxgraph.aws4.queue;" vertex="1" parent="1">
          <mxGeometry x="640" y="200" width="60" height="60" as="geometry" />
        </mxCell>
      </root>
    </mxGraphModel>
  </diagram>
</mxfile>
